# File created by Blade
# Date/Time:  Thu Sep 25 19:36:54 2014
# Frame Rate: 120.000 fps
#------------------------------------------------------
:FULLY-SPECIFIED
:DEGREES
1138
root -3.253068 32.999598 1.201225 2.980956 -0.419188 0.078327
Spine -7.423790 4.114340 -1.002682
Head -17.895126 -1.116805 15.361871
LeftShoulder -16.627093 13.779233 30.512490
LeftArm 18.825055 -24.548586 -21.438797
LeftForeArm 12.512121 0.000000 10.114873
LeftHand -25.499109 0.000000 -16.261378
LeftHandThumb1 -26.253704 0.000000 33.147579
RightShoulder -24.062641 18.110085 -43.371381
RightArm -0.199986 2.817318 23.132243
RightForeArm -33.386930 -0.000000 12.041647
RightHand -11.294549 -0.000000 14.393140
RightHandThumb1 -24.326973 -0.000000 -32.862282
LeftUpLeg 0.905033 -3.124363 0.095053
LeftLeg -1.206990 -0.000000 0.000000
LeftFoot -11.926646 9.249547 -19.001730
LeftToeBase 6.366351 -0.000000 -0.000000
RightUpLeg 0.515520 -0.820256 0.737069
RightLeg 2.222961 -0.000000 -0.000000
RightFoot -10.926950 -7.617064 4.746726
RightToeBase -1.948352 -0.000000 0.000000
1139
root -3.257781 32.998046 1.205129 2.967950 -0.476297 0.100069
Spine -7.424039 4.194232 -1.020280
Head -17.828591 -1.197938 15.011184
LeftShoulder -16.673002 13.816588 30.443092
LeftArm 18.797087 -24.493935 -21.395137
LeftForeArm 12.452679 -0.000000 10.145234
LeftHand -25.515153 -0.000000 -16.216332
LeftHandThumb1 -26.253704 0.000000 33.147579
RightShoulder -24.059527 18.079245 -43.395085
RightArm -0.153086 2.802171 23.113075
RightForeArm -33.495607 0.000000 11.992110
RightHand -11.195981 0.000000 14.514877
RightHandThumb1 -24.326973 -0.000000 -32.862282
LeftUpLeg 0.922617 -3.090872 0.077398
LeftLeg -1.192138 -0.000000 0.000000
LeftFoot -11.960274 9.274696 -19.009550
LeftToeBase 6.375619 -0.000000 -0.000000
RightUpLeg 0.511822 -0.783703 0.720107
RightLeg 2.259834 -0.000000 -0.000000
RightFoot -10.934970 -7.602510 4.702905
RightToeBase -1.942989 -0.000000 0.000000
1140
root -3.261670 32.996977 1.208406 2.959170 -0.513103 0.129407
Spine -7.438599 4.272955 -1.054547
Head -17.739552 -1.317306 14.709794
LeftShoulder -16.700200 13.869338 30.381079
LeftArm 18.823036 -24.399528 -21.339484
LeftForeArm 12.353896 -0.000000 10.066838
LeftHand -25.439962 -0.000000 -15.970979
LeftHandThumb1 -26.253704 0.000000 33.147579
RightShoulder -24.062567 18.048682 -43.426096
RightArm -0.116690 2.764594 23.101201
RightForeArm -33.650032 -0.000000 11.952286
RightHand -11.222457 0.000000 14.569185
RightHandThumb1 -24.326973 -0.000000 -32.862282
LeftUpLeg 0.933060 -3.100512 0.052749
LeftLeg -1.173518 -0.000000 0.000000
LeftFoot -11.978132 9.317764 -19.014266
LeftToeBase 6.336526 -0.000000 -0.000000
RightUpLeg 0.497942 -0.749669 0.696907
RightLeg 2.311265 -0.000000 -0.000000
RightFoot -10.955548 -7.605585 4.681953
RightToeBase -1.953638 -0.000000 0.000000
1141
root -3.266594 32.995610 1.212672 2.945281 -0.526971 0.142045
Spine -7.453112 4.328898 -1.070203
Head -17.647941 -1.434561 14.473458
LeftShoulder -16.724866 13.902619 30.329467
LeftArm 18.856729 -24.350674 -21.285249
LeftForeArm 12.377404 -0.000000 10.025426
LeftHand -25.404306 -0.000000 -15.994661
LeftHandThumb1 -26.253704 0.000000 33.147579
RightShoulder -24.039298 18.027525 -43.459026
RightArm -0.138010 2.778078 23.088267
RightForeArm -33.768949 -0.000000 11.951209
RightHand -11.204359 -0.000000 14.623666
RightHandThumb1 -24.326973 -0.000000 -32.862282
LeftUpLeg 0.912451 -2.898975 0.044303
LeftLeg -1.086660 -0.000000 0.000000
LeftFoot -11.976199 9.168263 -18.975700
LeftToeBase 6.321378 -0.000000 -0.000000
RightUpLeg 0.489927 -0.743612 0.696876
RightLeg 2.358117 -0.000000 -0.000000
RightFoot -10.870126 -7.699691 4.448364
RightToeBase -2.180720 -0.000000 0.000000
1142
root -3.268529 32.994943 1.216370 2.939463 -0.522372 0.165254
Spine -7.482114 4.351946 -1.089980
Head -17.560004 -1.563301 14.299338
LeftShoulder -16.755252 13.964687 30.293964
LeftArm 18.861707 -24.367242 -21.281239
LeftForeArm 12.390892 -0.000000 10.109325
LeftHand -25.486933 -0.000000 -16.042967
LeftHandThumb1 -26.253704 0.000000 33.147579
RightShoulder -24.011903 18.027291 -43.493386
RightArm -0.134030 2.640086 23.056298
RightForeArm -33.644087 -0.000000 11.911740
RightHand -11.170248 0.000000 14.650161
RightHandThumb1 -24.326973 -0.000000 -32.862282
LeftUpLeg 0.897908 -2.828616 0.012376
LeftLeg -1.029695 -0.000000 0.000000
LeftFoot -11.986259 9.152864 -18.981343
LeftToeBase 6.329146 -0.000000 -0.000000
RightUpLeg 0.472569 -0.725895 0.674906
RightLeg 2.417991 -0.000000 -0.000000
RightFoot -10.914250 -7.668978 4.483872
RightToeBase -1.990581 -0.000000 0.000000
1143
root -3.271960 32.995270 1.221525 2.912758 -0.494841 0.177209
Spine -7.473266 4.396084 -1.101758
Head -17.521969 -1.706623 14.188231
LeftShoulder -16.775925 13.975452 30.248336
LeftArm 18.900058 -24.338209 -21.236478
LeftForeArm 12.363319 -0.000000 10.118245
LeftHand -25.474530 -0.000000 -15.983472
LeftHandThumb1 -26.253704 0.000000 33.147579
RightShoulder -24.044785 17.969782 -43.533813
RightArm -0.121155 2.626417 23.045392
RightForeArm -33.614398 -0.000000 11.926879
RightHand -11.182274 -0.000000 14.721780
RightHandThumb1 -24.326973 -0.000000 -32.862282
LeftUpLeg 0.904719 -2.740233 0.003444
LeftLeg -0.974698 -0.000000 0.000000
LeftFoot -11.946924 9.086939 -18.904918
LeftToeBase 6.300984 -0.000000 -0.000000
RightUpLeg 0.462087 -0.753139 0.674511
RightLeg 2.511184 -0.000000 -0.000000
RightFoot -10.923096 -7.684869 4.397823
RightToeBase -1.871822 -0.000000 0.000000
1144
root -3.277161 32.993792 1.227300 2.882771 -0.448779 0.184061
Spine -7.468849 4.401058 -1.126407
Head -17.476273 -1.798552 14.197821
LeftShoulder -16.777131 13.978315 30.262662
LeftArm 18.899219 -24.320239 -21.215321
LeftForeArm 12.359448 -0.000000 10.139903
LeftHand -25.450478 -0.000000 -15.948355
LeftHandThumb1 -26.253704 0.000000 33.147579
RightShoulder -24.069332 17.889319 -43.532351
RightArm -0.056594 2.672961 23.041716
RightForeArm -33.597197 -0.000000 11.899197
RightHand -11.160697 -0.000000 14.656873
RightHandThumb1 -24.326973 -0.000000 -32.862282
LeftUpLeg 0.893407 -2.543948 0.011512
LeftLeg -0.891092 -0.000000 0.000000
LeftFoot -11.890889 8.867806 -18.795336
LeftToeBase 6.261463 -0.000000 -0.000000
RightUpLeg 0.500403 -0.714691 0.681220
RightLeg 2.518202 -0.000000 -0.000000
RightFoot -10.919739 -7.759510 4.380824
RightToeBase -1.863100 -0.000000 0.000000
1145
root -3.278978 32.992955 1.235095 2.835317 -0.370038 0.187179
Spine -7.445315 4.366974 -1.128816
Head -17.436447 -1.856609 14.253843
LeftShoulder -16.773284 13.990381 30.276196
LeftArm 18.896332 -24.391819 -21.223742
LeftForeArm 12.462370 0.000000 10.163466
LeftHand -25.381192 -0.000000 -16.138760
LeftHandThumb1 -26.253704 0.000000 33.147579
RightShoulder -24.053152 17.938974 -43.588172
RightArm -0.128177 2.612687 23.022008
RightForeArm -33.590401 -0.000000 11.938324
RightHand -11.199344 0.000000 14.575740
RightHandThumb1 -24.326973 -0.000000 -32.862282
LeftUpLeg 0.926510 -2.494694 0.002242
LeftLeg -0.846659 -0.000000 0.000000
LeftFoot -11.898318 8.831084 -18.807477
LeftToeBase 6.253219 -0.000000 -0.000000
RightUpLeg 0.549546 -0.735343 0.687252
RightLeg 2.557987 -0.000000 -0.000000
RightFoot -10.981340 -7.797898 4.440197
RightToeBase -1.705454 -0.000000 0.000000
1146
root -3.280337 32.992284 1.244800 2.789032 -0.264696 0.187014
Spine -7.432914 4.286305 -1.123142
Head -17.371896 -1.879390 14.365382
LeftShoulder -16.791821 14.004932 30.281867
LeftArm 18.934931 -24.498975 -21.245955
LeftForeArm 12.551469 0.000000 10.152174
LeftHand -25.475901 0.000000 -16.074185
LeftHandThumb1 -26.253704 0.000000 33.147579
RightShoulder -24.052916 17.937993 -43.604016
RightArm -0.078391 2.603518 22.997383
RightForeArm -33.609315 -0.000000 11.926503
RightHand -11.213827 -0.000000 14.637457
RightHandThumb1 -24.326973 -0.000000 -32.862282
LeftUpLeg 0.962638 -2.463160 0.008158
LeftLeg -0.821698 -0.000000 0.000000
LeftFoot -11.841740 8.747144 -18.671974
LeftToeBase 6.263039 -0.000000 -0.000000
RightUpLeg 0.610268 -0.775421 0.696641
RightLeg 2.580930 -0.000000 -0.000000
RightFoot -10.997476 -7.872051 4.430470
RightToeBase -1.653464 -0.000000 0.000000
1147
root -3.280376 32.991223 1.255196 2.729618 -0.141894 0.189832
Spine -7.402076 4.206858 -1.128326
Head -17.340668 -1.905484 14.564925
LeftShoulder -16.775119 13.983997 30.320935
LeftArm 18.940521 -24.509187 -21.248449
LeftForeArm 12.574210 -0.000000 10.136827
LeftHand -25.537393 -0.000000 -15.948416
LeftHandThumb1 -26.253704 0.000000 33.147579
RightShoulder -24.061898 17.942888 -43.632921
RightArm -0.084302 2.621304 22.983680
RightForeArm -33.660883 -0.000000 11.973363
RightHand -11.224311 -0.000000 14.684600
RightHandThumb1 -24.326973 -0.000000 -32.862282
LeftUpLeg 1.021614 -2.488845 0.005238
LeftLeg -0.813258 -0.000000 0.000000
LeftFoot -11.821961 8.715096 -18.644396
LeftToeBase 6.325787 -0.000000 -0.000000
RightUpLeg 0.687496 -0.857767 0.702952
RightLeg 2.595642 -0.000000 -0.000000
RightFoot -10.965585 -7.954033 4.333835
RightToeBase -1.751053 -0.000000 0.000000
1148
root -3.280595 32.990942 1.265755 2.672107 -0.009494 0.191579
Spine -7.374843 4.110078 -1.131935
Head -17.318503 -1.890778 14.788703
LeftShoulder -16.767402 13.964959 30.340667
LeftArm 18.955771 -24.475459 -21.189820
LeftForeArm 12.559021 -0.000000 10.073790
LeftHand -25.502465 -0.000000 -15.889417
LeftHandThumb1 -26.253704 0.000000 33.147579
RightShoulder -24.087478 17.962355 -43.626630
RightArm -0.031663 2.593297 22.936609
RightForeArm -33.673387 0.000000 11.981031
RightHand -11.200420 -0.000000 14.622415
RightHandThumb1 -24.326973 -0.000000 -32.862282
LeftUpLeg 1.072501 -2.457108 0.004628
LeftLeg -0.791806 -0.000000 0.000000
LeftFoot -11.744734 8.635108 -18.598276
LeftToeBase 6.323551 -0.000000 -0.000000
RightUpLeg 0.782288 -0.896685 0.708338
RightLeg 2.580469 -0.000000 -0.000000
RightFoot -10.995297 -8.009528 4.421272
RightToeBase -1.596472 -0.000000 0.000000
1149
root -3.277172 32.990086 1.276984 2.612394 0.121252 0.199976
Spine -7.351153 4.019075 -1.140347
Head -17.274178 -1.845752 15.048369
LeftShoulder -16.751601 13.934116 30.389105
LeftArm 18.960964 -24.393954 -21.128800
LeftForeArm 12.553400 0.000000 10.011460
LeftHand -25.370722 -0.000000 -16.009915
LeftHandThumb1 -26.253704 0.000000 33.147579
RightShoulder -24.108063 17.916858 -43.586273
RightArm 0.075588 2.561497 22.896654
RightForeArm -33.633855 0.000000 11.963993
RightHand -11.211028 -0.000000 14.426136
RightHandThumb1 -24.326973 -0.000000 -32.862282
LeftUpLeg 1.127025 -2.394592 -0.020510
LeftLeg -0.768931 -0.000000 0.000000
LeftFoot -11.704345 8.580997 -18.541839
LeftToeBase 6.436483 -0.000000 -0.000000
RightUpLeg 0.841207 -1.051434 0.700698
RightLeg 2.643239 -0.000000 -0.000000
RightFoot -11.011277 -8.015027 4.370167
RightToeBase -1.521131 -0.000000 0.000000
1150
root -3.278173 32.988861 1.289288 2.551230 0.252538 0.194017
Spine -7.328420 3.931536 -1.144861
Head -17.239004 -1.812329 15.333514
LeftShoulder -16.752174 13.970878 30.443518
LeftArm 18.992377 -24.482143 -21.144518
LeftForeArm 12.533031 0.000000 10.084843
LeftHand -25.508711 -0.000000 -16.074354
LeftHandThumb1 -26.253704 0.000000 33.147579
RightShoulder -24.136470 17.900921 -43.566725
RightArm 0.132028 2.533484 22.864112
RightForeArm -33.801861 0.000000 12.040782
RightHand -11.275308 0.000000 14.487047
RightHandThumb1 -24.326973 -0.000000 -32.862282
LeftUpLeg 1.182251 -2.308859 -0.004593
LeftLeg -0.753123 -0.000000 0.000000
LeftFoot -11.596847 8.415319 -18.412641
LeftToeBase 6.463677 -0.000000 -0.000000
RightUpLeg 0.923287 -1.148772 0.714888
RightLeg 2.663647 -0.000000 -0.000000
RightFoot -10.997681 -8.072718 4.368697
RightToeBase -1.449925 -0.000000 0.000000
